<svg width="44" height="44" viewBox="0 0 44 44" fill="none" xmlns="http://www.w3.org/2000/svg">
<g filter="url(#filter0_d_203_1534)">
<path d="M40 20C40 10.0589 31.9411 2 22 2C12.0589 2 4 10.0589 4 20C4 29.9411 12.0589 38 22 38C31.9411 38 40 29.9411 40 20Z" fill="white"/>
<path d="M15.8335 19.4582C15.8989 19.6893 16.0252 19.8987 16.1995 20.0648C16.3973 20.2138 16.6432 20.2857 16.8907 20.267C17.0329 20.2699 17.1743 20.2459 17.3075 20.1962C17.4395 20.1505 17.5606 20.0782 17.6632 19.9839C17.7725 19.9 17.8568 19.7882 17.9072 19.6604C17.9799 19.4995 18.0123 19.3235 18.0017 19.1475C17.9911 18.9714 17.9377 18.8006 17.8462 18.6495C17.7501 18.5081 17.6164 18.3961 17.4599 18.326C17.2963 18.2504 17.1211 18.2026 16.9415 18.1845C16.7555 18.1694 16.5685 18.1694 16.3824 18.1845V17.5072C16.6273 17.5091 16.872 17.4922 17.1143 17.4566C17.272 17.4194 17.4229 17.358 17.5616 17.2747C17.6662 17.2082 17.745 17.1084 17.7852 16.9916C17.836 16.87 17.8603 16.7391 17.8564 16.6075C17.8657 16.4797 17.8459 16.3515 17.7983 16.2325C17.7508 16.1134 17.6768 16.0066 17.5819 15.9201C17.3899 15.7565 17.1434 15.67 16.8907 15.6774C16.6823 15.6809 16.4801 15.7479 16.3113 15.8695C16.1404 15.9889 16.0066 16.1535 15.925 16.3446L15.1321 16.0818C15.2579 15.7387 15.5031 15.4518 15.8234 15.2731C16.1322 15.0949 16.4828 15.0008 16.8399 15.0001C17.0675 14.9975 17.2941 15.0317 17.5108 15.1012C17.7179 15.1561 17.9116 15.2524 18.08 15.3843C18.2433 15.5172 18.3723 15.687 18.4561 15.8796C18.5635 16.0926 18.6159 16.3289 18.6086 16.567C18.6105 16.8612 18.5099 17.147 18.324 17.3758C18.1596 17.5839 17.9367 17.7387 17.6836 17.8206C17.8534 17.8492 18.0157 17.911 18.1613 18.0025C18.3027 18.0825 18.4243 18.1931 18.5171 18.326C18.6112 18.4808 18.6733 18.6526 18.7001 18.8315C18.7507 18.9951 18.7747 19.1657 18.7712 19.3369C18.7775 19.5891 18.7217 19.839 18.6086 20.0648C18.5071 20.2664 18.3612 20.4427 18.1816 20.5803C17.9983 20.717 17.7917 20.8197 17.5717 20.8836C17.3383 20.9572 17.0949 20.9947 16.85 20.9948C16.443 21.0025 16.0417 20.8975 15.6912 20.6915C15.3465 20.4749 15.099 20.1346 15 19.7413L15.8335 19.4582ZM20.916 17.3454C21.1123 17.2514 21.3286 17.2063 21.5463 17.214C21.7604 17.2145 21.9731 17.2486 22.1765 17.3151C22.3873 17.3861 22.5811 17.4997 22.7457 17.6487C22.9254 17.8041 23.0678 17.9976 23.1625 18.2148C23.2779 18.4686 23.3335 18.7452 23.3251 19.0235C23.3317 19.3116 23.2762 19.5976 23.1625 19.8626C23.0803 20.0962 22.9462 20.3084 22.7702 20.4834C22.5943 20.6584 22.3809 20.7917 22.146 20.8735C21.6519 21.0422 21.1153 21.0422 20.6212 20.8735C20.3894 20.7894 20.1756 20.6625 19.991 20.4995C19.81 20.335 19.6647 20.1355 19.5641 19.9131C19.4589 19.6743 19.4069 19.4157 19.4116 19.155C19.3956 18.9936 19.3956 18.8311 19.4116 18.6697C19.4333 18.5279 19.4708 18.3888 19.5234 18.2553C19.5741 18.1226 19.6352 17.9941 19.7064 17.8711L19.9402 17.4667L21.404 15.1821H22.3188L20.916 17.3454ZM20.1842 19.0842C20.1837 19.246 20.2113 19.4067 20.2655 19.5593C20.3157 19.7045 20.3986 19.8365 20.5078 19.9451C20.617 20.0537 20.7497 20.1361 20.8957 20.1861C21.2243 20.3034 21.5836 20.3034 21.9122 20.1861C22.0518 20.1294 22.1794 20.0471 22.2883 19.9435C22.3905 19.8298 22.4729 19.6999 22.5323 19.5593C22.6545 19.2542 22.6545 18.9142 22.5323 18.6091C22.4777 18.469 22.3946 18.3417 22.2883 18.235C22.1826 18.1249 22.0543 18.0388 21.9122 17.9823C21.5865 17.8497 21.2214 17.8497 20.8957 17.9823C20.7518 18.0411 20.6207 18.1269 20.5094 18.235C20.4031 18.3417 20.3201 18.469 20.2655 18.6091C20.2216 18.7634 20.2044 18.9241 20.2146 19.0842H20.1842ZM23.9147 17.9924C23.9147 17.7801 23.9147 17.5577 23.9147 17.3353C23.9406 17.1105 23.9813 16.8876 24.0367 16.6681C24.096 16.4541 24.1707 16.2447 24.2603 16.0414C24.3535 15.851 24.4771 15.6769 24.6263 15.5258C24.7762 15.3731 24.9561 15.2526 25.1548 15.172C25.3794 15.0756 25.6218 15.0273 25.8664 15.0305C26.111 15.0264 26.3537 15.0747 26.5779 15.172C26.778 15.2502 26.9584 15.371 27.1065 15.5258C27.262 15.6716 27.3864 15.8469 27.4725 16.0414C27.5709 16.2411 27.646 16.4514 27.6961 16.6681C27.7563 16.8865 27.7972 17.1098 27.8181 17.3353C27.8329 17.5541 27.8329 17.7736 27.8181 17.9924C27.8166 18.3309 27.7894 18.6689 27.7368 19.0033C27.6798 19.3358 27.5772 19.659 27.4318 19.9637C27.2931 20.2561 27.0835 20.5097 26.8219 20.7016C26.5261 20.9108 26.1678 21.0141 25.8054 20.9948C25.4433 21.0117 25.0857 20.9086 24.7889 20.7016C24.533 20.5064 24.3274 20.2535 24.1892 19.9637C24.0392 19.6608 23.9364 19.3369 23.8842 19.0033C23.879 18.6653 23.8993 18.3274 23.9452 17.9924H23.9147ZM24.6974 17.9924C24.6974 18.1744 24.6974 18.4069 24.6974 18.6596C24.7251 18.9173 24.7796 19.1713 24.8601 19.4178C24.9377 19.6411 25.0586 19.8472 25.2158 20.0243C25.3025 20.1059 25.4047 20.1694 25.5165 20.211C25.6282 20.2527 25.7472 20.2717 25.8664 20.267C25.9857 20.2729 26.1051 20.2544 26.2169 20.2127C26.3288 20.1709 26.4309 20.1068 26.517 20.0243C26.6809 19.8503 26.8056 19.6435 26.8829 19.4178C26.9648 19.1722 27.016 18.9176 27.0354 18.6596C27.0485 18.4374 27.0485 18.2146 27.0354 17.9924C27.0354 17.861 27.0354 17.7195 27.0354 17.5577C27.0335 17.3881 27.0165 17.2189 26.9845 17.0523C26.9547 16.8847 26.914 16.7192 26.8626 16.5569C26.8087 16.4055 26.7334 16.2626 26.6389 16.1324C26.5571 15.9974 26.4404 15.8869 26.3009 15.8122C26.1614 15.7375 26.0043 15.7014 25.8461 15.7078C25.6866 15.7063 25.5294 15.7445 25.3886 15.819C25.2558 15.8987 25.1415 16.0055 25.0532 16.1324C24.966 16.2653 24.8944 16.4078 24.8397 16.5569C24.7889 16.7187 24.7482 16.8804 24.7076 17.0523C24.6669 17.2241 24.7076 17.3859 24.7076 17.5577C24.7076 17.7296 24.7279 17.8206 24.7279 17.9924H24.6974ZM28.5703 16.2334C28.5692 16.0739 28.6003 15.9158 28.6618 15.7684C28.7258 15.6255 28.8153 15.4954 28.9261 15.3843C29.04 15.2795 29.1705 15.1941 29.3123 15.1316C29.4618 15.0623 29.6252 15.0277 29.7901 15.0305C29.9518 15.0267 30.1121 15.0613 30.2577 15.1316C30.3995 15.1941 30.53 15.2795 30.6439 15.3843C30.7548 15.5048 30.8411 15.6456 30.8981 15.7988C30.9687 15.9435 31.0035 16.1029 30.9997 16.2638C31.0025 16.4278 30.9677 16.5902 30.8981 16.7389C30.8351 16.88 30.7493 17.0097 30.6439 17.123C30.5304 17.231 30.4 17.3197 30.2577 17.3859C30.1075 17.4389 29.9494 17.4662 29.7901 17.4667C29.6274 17.4662 29.466 17.4389 29.3123 17.3859C29.0218 17.2586 28.7897 17.0278 28.6618 16.7389C28.6066 16.5764 28.5858 16.4043 28.6008 16.2334H28.5703ZM29.109 16.2334C29.1076 16.3215 29.1239 16.4089 29.1571 16.4905C29.1903 16.5721 29.2396 16.6463 29.3022 16.7086C29.3647 16.7731 29.4397 16.8244 29.5227 16.8594C29.6057 16.8945 29.6949 16.9125 29.785 16.9125C29.8751 16.9125 29.9643 16.8945 30.0473 16.8594C30.1303 16.8244 30.2053 16.7731 30.2678 16.7086C30.3324 16.6478 30.3831 16.5739 30.4164 16.4919C30.4497 16.4099 30.4649 16.3218 30.461 16.2334C30.4623 16.1454 30.4459 16.0581 30.4127 15.9765C30.3795 15.8949 30.3301 15.8209 30.2675 15.7586C30.205 15.6964 30.1305 15.6473 30.0484 15.6143C29.9664 15.5812 29.8786 15.5649 29.7901 15.5662C29.6999 15.5634 29.61 15.579 29.5261 15.612C29.4422 15.6451 29.366 15.6949 29.3022 15.7583C29.1897 15.8906 29.1316 16.0603 29.1395 16.2334H29.109Z" fill="#002E5D"/>
<path d="M11.8391 18.6338C9.19483 19.5206 7.54688 20.753 7.54688 22.1176C7.54688 24.8138 13.9563 27 21.8617 27C29.7671 27 36.1766 24.8138 36.1766 22.1176C36.1766 20.753 34.5315 19.5206 31.8844 18.6338" stroke="#002E5D" stroke-width="0.5" stroke-miterlimit="10" stroke-linecap="round"/>
<path d="M11.5 17.5L13.5 17.963L12.5 20L11.5 17.5Z" fill="#002E5D" stroke="#002E5D" stroke-width="0.5" stroke-linecap="round" stroke-linejoin="round"/>
</g>
<defs>
<filter id="filter0_d_203_1534" x="0" y="0" width="44" height="44" filterUnits="userSpaceOnUse" color-interpolation-filters="sRGB">
<feFlood flood-opacity="0" result="BackgroundImageFix"/>
<feColorMatrix in="SourceAlpha" type="matrix" values="0 0 0 0 0 0 0 0 0 0 0 0 0 0 0 0 0 0 127 0" result="hardAlpha"/>
<feOffset dy="2"/>
<feGaussianBlur stdDeviation="2"/>
<feComposite in2="hardAlpha" operator="out"/>
<feColorMatrix type="matrix" values="0 0 0 0 0 0 0 0 0 0 0 0 0 0 0 0 0 0 0.15 0"/>
<feBlend mode="normal" in2="BackgroundImageFix" result="effect1_dropShadow_203_1534"/>
<feBlend mode="normal" in="SourceGraphic" in2="effect1_dropShadow_203_1534" result="shape"/>
</filter>
</defs>
</svg>
