<svg width="14" height="14" viewBox="0 0 14 14" fill="none" xmlns="http://www.w3.org/2000/svg">
<path d="M6.99333 0.333313C3.31333 0.333313 0.32666 3.31998 0.32666 6.99998C0.32666 10.68 3.31333 13.6666 6.99333 13.6666C10.6733 13.6666 13.66 10.68 13.66 6.99998C13.66 3.31998 10.6733 0.333313 6.99333 0.333313ZM9.39999 4.55998C10.1133 4.55998 10.6867 5.13331 10.6867 5.84665C10.6867 6.55998 10.1133 7.13331 9.39999 7.13331C8.68666 7.13331 8.11333 6.55998 8.11333 5.84665C8.10666 5.13331 8.68666 4.55998 9.39999 4.55998ZM5.39999 3.50665C6.26666 3.50665 6.97333 4.21331 6.97333 5.07998C6.97333 5.94665 6.26666 6.65331 5.39999 6.65331C4.53333 6.65331 3.82666 5.94665 3.82666 5.07998C3.82666 4.20665 4.52666 3.50665 5.39999 3.50665ZM5.39999 9.59331V12.0933C3.79999 11.5933 2.53333 10.36 1.97333 8.78665C2.67333 8.03998 4.41999 7.65998 5.39999 7.65998C5.75333 7.65998 6.19999 7.71331 6.66666 7.80665C5.57333 8.38665 5.39999 9.15331 5.39999 9.59331ZM6.99333 12.3333C6.81333 12.3333 6.63999 12.3266 6.46666 12.3066V9.59331C6.46666 8.64665 8.42666 8.17331 9.39999 8.17331C10.1133 8.17331 11.3467 8.43331 11.96 8.93998C11.18 10.92 9.25333 12.3333 6.99333 12.3333Z" fill="#002E5D"/>
</svg>
